# xmcd
#
# Track frame offsets: 
#        150
#        18951
#        34046
#        52957
#
# Disc length: 1442 seconds
#
# Revision: 0
# Processed by: cddbd v1.5.2PL0 Copyright (c) Steve Scherf et al.
# Submitted via: ExactAudioCopy v0.99pb3
#
DISCID=2405a004
DTITLE=Melys - Slagging Off Tourists
DYEAR=1999
DGENRE=Sylem
TTITLE0=Disco Pig
TTITLE1=Mae'n Amser I Newid
TTITLE2=Porn Myself
TTITLE3=Chasing Again
EXTD=
EXTT0=
EXTT1=
EXTT2=
EXTT3=
PLAYORDER=
